<svg xmlns="http://www.w3.org/2000/svg" xmlns:xlink="http://www.w3.org/1999/xlink" width="500" zoomAndPan="magnify" viewBox="0 0 375 374.999991" height="500" preserveAspectRatio="xMidYMid meet" version="1.0"><defs><g/></defs><rect x="-37.5" width="450" fill="#ffffff" y="-37.499999" height="449.999989" fill-opacity="1"/><rect x="-37.5" width="450" fill="#ffffff" y="-37.499999" height="449.999989" fill-opacity="1"/><g fill="#060606" fill-opacity="1"><g transform="translate(28.977689, 359.392049)"><g><path d="M 20.546875 -346.328125 C 27.390625 -345.992188 36.351562 -345.664062 47.4375 -345.34375 C 58.53125 -345.019531 69.457031 -344.859375 80.21875 -344.859375 C 95.550781 -344.859375 110.226562 -345.019531 124.25 -345.34375 C 138.269531 -345.664062 148.210938 -345.828125 154.078125 -345.828125 C 180.492188 -345.828125 202.425781 -342.078125 219.875 -334.578125 C 237.320312 -327.078125 250.363281 -316.882812 259 -304 C 267.644531 -291.125 271.96875 -276.695312 271.96875 -260.71875 C 271.96875 -250.9375 270.007812 -240.5 266.09375 -229.40625 C 262.1875 -218.320312 255.421875 -207.890625 245.796875 -198.109375 C 236.179688 -188.328125 223.054688 -180.253906 206.421875 -173.890625 C 189.796875 -167.535156 168.765625 -164.359375 143.328125 -164.359375 L 96.359375 -164.359375 L 96.359375 -174.140625 L 138.4375 -174.140625 C 161.582031 -174.140625 179.269531 -177.804688 191.5 -185.140625 C 203.726562 -192.484375 212.046875 -202.269531 216.453125 -214.5 C 220.859375 -226.726562 223.0625 -240.34375 223.0625 -255.34375 C 223.0625 -281.101562 216.945312 -301.078125 204.71875 -315.265625 C 192.488281 -329.453125 171.535156 -336.546875 141.859375 -336.546875 C 126.859375 -336.546875 117.070312 -333.769531 112.5 -328.21875 C 107.9375 -322.675781 105.65625 -311.425781 105.65625 -294.46875 L 105.65625 -51.84375 C 105.65625 -40.101562 106.632812 -31.296875 108.59375 -25.421875 C 110.550781 -19.554688 114.378906 -15.644531 120.078125 -13.6875 C 125.785156 -11.738281 134.1875 -10.4375 145.28125 -9.78125 L 145.28125 0 C 137.78125 -0.65625 128.40625 -1.0625 117.15625 -1.21875 C 105.90625 -1.382812 94.570312 -1.46875 83.15625 -1.46875 C 70.4375 -1.46875 58.53125 -1.382812 47.4375 -1.21875 C 36.351562 -1.0625 27.390625 -0.65625 20.546875 0 L 20.546875 -9.78125 C 31.628906 -10.4375 40.023438 -11.738281 45.734375 -13.6875 C 51.441406 -15.644531 55.273438 -19.554688 57.234375 -25.421875 C 59.191406 -31.296875 60.171875 -40.101562 60.171875 -51.84375 L 60.171875 -294.46875 C 60.171875 -306.539062 59.191406 -315.425781 57.234375 -321.125 C 55.273438 -326.832031 51.441406 -330.742188 45.734375 -332.859375 C 40.023438 -334.984375 31.628906 -336.210938 20.546875 -336.546875 Z M 98.328125 -172.671875 C 115.929688 -172.015625 129.785156 -171.28125 139.890625 -170.46875 C 150.003906 -169.65625 158.238281 -168.921875 164.59375 -168.265625 C 170.957031 -167.617188 177.070312 -166.804688 182.9375 -165.828125 C 204.789062 -162.234375 220.523438 -155.625 230.140625 -146 C 239.765625 -136.382812 246.859375 -121.46875 251.421875 -101.25 L 263.65625 -51.359375 C 266.914062 -37.015625 270.253906 -26.660156 273.671875 -20.296875 C 277.097656 -13.941406 282.398438 -10.925781 289.578125 -11.25 C 295.117188 -11.570312 299.765625 -13.363281 303.515625 -16.625 C 307.265625 -19.882812 311.257812 -24.289062 315.5 -29.84375 L 322.84375 -24.453125 C 316 -14.347656 308.90625 -6.601562 301.5625 -1.21875 C 294.226562 4.15625 283.875 6.84375 270.5 6.84375 C 258.4375 6.84375 247.835938 3.257812 238.703125 -3.90625 C 229.578125 -11.082031 222.726562 -25.109375 218.15625 -45.984375 L 207.40625 -94.890625 C 204.46875 -108.921875 201.125 -121.070312 197.375 -131.34375 C 193.625 -141.613281 188.40625 -149.679688 181.71875 -155.546875 C 175.03125 -161.421875 165.164062 -164.359375 152.125 -164.359375 L 99.296875 -164.359375 Z M 98.328125 -172.671875 "/></g></g></g></svg>